<svg width="512" height="512" viewBox="0 0 512 512" fill="none" xmlns="http://www.w3.org/2000/svg">
<path d="M240.641 257.609L210.06 213.77C199.935 199.254 147.152 236.073 157.277 250.589L214.179 332.163C224.305 346.678 244.465 350.27 258.981 340.145C263.108 337.266 266.318 333.559 268.615 329.417L268.641 329.431C268.641 329.431 268.712 329.271 268.77 329.142C269.502 327.791 270.15 326.403 270.679 324.971C282.388 299.772 344.396 172.462 431 107.059C431 107.059 321.943 109.814 240.641 257.609ZM416.863 113.759C334.241 176.154 275.086 297.608 263.915 321.648C263.915 321.648 259.582 289.876 311.071 214.107C362.56 138.338 416.863 113.759 416.863 113.759Z" fill="#7952B3"/>
<path d="M367.432 192.988C377.176 211.737 382.718 233.004 382.718 255.553C382.718 330.637 321.635 391.72 246.556 391.72C171.472 391.72 110.389 330.637 110.389 255.553C110.389 180.472 171.472 119.389 246.556 119.389C273.756 119.389 299.097 127.437 320.385 141.233C329.299 133.946 337.825 127.99 345.753 123.096C318.087 102.324 283.735 90 246.556 90C155.266 90 81 164.266 81 255.553C81 346.841 155.266 421.109 246.556 421.109C337.841 421.109 412.107 346.841 412.107 255.553C412.107 223.403 402.864 193.386 386.942 167.96C380.787 175.331 374.198 183.691 367.432 192.988Z" fill="#7952B3"/>
</svg>
